<svg xmlns="http://www.w3.org/2000/svg" viewBox="0 0 32 32"><defs></defs><g id="location"><path fill="white"
d="M22.37,21.09a1,1,0,0,0-1.3.56,1,1,0,0,0,.56,1.3C23.09,23.53,24,24.32,24,25c0,1.22-3.12,3-8,
3s-8-1.78-8-3c0-.68.91-1.47,2.37-2.05a1,1,0,0,0,.56-1.3,1,1,0,0,0-1.3-.56C7.29,22,6,23.41,6,25c0,
2.85,4.3,5,10,5s10-2.15,10-5C26,23.41,24.71,22,22.37,21.09Z"/>
<path fill="white" d="M16,25a1,1,0,0,0,.68-.27C24,17.82,25.47,9.4,22.59,5.26a7.5,7.5,0,0,0-2.74-2.33,
8.43,8.43,0,0,0-7.7,0A7.5,7.5,0,0,0,9.41,5.26C6.53,9.4,8,17.82,15.32,24.73A1,1,0,0,0,16,25ZM11.05,6.4a5.5,5.5,0,0,1,
2-1.69,6.4,6.4,0,0,1,5.86,0A5.5,5.5,0,0,1,21,6.4C23.2,9.65,21.9,16.65,16,22.6,10.1,16.65,8.8,9.65,11.05,6.4Z"/>
<path fill="white" d="M19,9a3,3,0,1,0-3,3A3,3,0,0,0,19,9ZM15,9a1,1,0,1,1,1,1A1,1,0,0,1,15,9Z"/></g></svg>